<?xml version="1.0" encoding="utf-8"?>
<!-- Generator: Adobe Illustrator 20.0.0, SVG Export Plug-In . SVG Version: 6.00 Build 0)  -->
<svg version="1.1" id="Layer_1" xmlns="http://www.w3.org/2000/svg" xmlns:xlink="http://www.w3.org/1999/xlink" x="0px" y="0px"
	 viewBox="0 0 109.9 127.2" style="enable-background:new 0 0 109.9 127.2;" xml:space="preserve">
<style type="text/css">
	.st0{fill:#D24B49;}
	.st1{fill:#FFFFFF;}
	.st2{fill:#FCDED9;}
</style>
<title>404-error-pic</title>
<g id="Layer_2">
	<g id="Layer_1-2">
		<path class="st0" d="M7.9,26.6v88.9l2.1,2.1l12.2-12.2c1.6-1.5,4.1-1.5,5.6,0L40,117.6l12.2-12.2c1.6-1.5,4.1-1.5,5.6,0l12.2,12.2
			l12.2-12.2c1.6-1.5,4.1-1.5,5.6,0l12.2,12.2l2.1-2.1V7.9H26.7L7.9,26.6z M109.9,4v113.2l0,0c0,1.1-0.4,2.1-1.2,2.9l-6,6
			c-1.6,1.5-4.1,1.5-5.6,0l-12.2-12.2l-12.2,12.2c-1.6,1.5-4.1,1.5-5.6,0l-12.2-12.2l-12.1,12.2c-1.6,1.5-4.1,1.5-5.6,0L25,113.9
			L12.8,126c-1.6,1.5-4.1,1.5-5.6,0l-6-6c-0.8-0.7-1.2-1.8-1.2-2.8L0,25c0-1.1,0.4-2.1,1.2-2.8l21-21C22.9,0.4,23.9,0,25,0l80.9,0
			C108.1,0,109.9,1.8,109.9,4z"/>
		<polygon class="st1" points="105.9,117.2 99.9,123.3 84.9,108.3 69.9,123.3 55,108.3 40,123.3 25,108.3 10,123.3 4,117.2 4,25 
			25,4 105.9,4 		"/>
		<path class="st0" d="M29,25c0,2.2-1.8,4-4,4H4c-1,0-2-0.4-2.7-1.1c-1.6-1.5-1.6-4.1-0.1-5.7l21-21c0.7-0.7,1.7-1.1,2.7-1.1
			c2.2,0,4,1.7,4.1,3.9l0,0L29,25 M13.6,21H21v-7.4L13.6,21z"/>
		<polygon class="st2" points="4,25 25,25 25,4 		"/>
		<polygon class="st2" points="55,100.8 40,115.8 25,100.8 10,115.8 4,109.8 4,117.2 10,123.3 25,108.3 40,123.3 55,108.3 
			69.9,123.3 84.9,108.3 99.9,123.3 105.9,117.2 105.9,109.8 99.9,115.8 84.9,100.8 69.9,115.8 		"/>
		<rect x="72" y="28.5" transform="matrix(0.7071 -0.7071 0.7071 0.7071 -5.9182 63.7716)" class="st0" width="4" height="21"/>
		<rect x="63.5" y="37" transform="matrix(0.7071 -0.7071 0.7071 0.7071 -5.9203 63.7666)" class="st0" width="21" height="4"/>
		<rect x="33.9" y="28.5" transform="matrix(0.7071 -0.7071 0.7071 0.7071 -17.0742 36.823)" class="st0" width="4" height="21"/>
		<rect x="25.4" y="37" transform="matrix(0.7071 -0.7071 0.7071 0.7071 -17.0833 36.8209)" class="st0" width="21" height="4"/>
		<path class="st0" d="M25.1,66.3c-1.1,0-2-0.9-2-2s0.9-2,2-2h59.7c1.1,0,2,0.9,2,2s-0.9,2-2,2H25.1z"/>
		<path class="st0" d="M27.1,72.4c0,3.4,2.8,6.2,6.2,6.2c3.4,0,6.2-2.8,6.2-6.2v-6.2H27.1V72.4z M43.4,62.3v10.1
			c0,5.6-4.5,10.1-10.1,10.1S23.1,78,23.1,72.4V62.3h18.3L43.4,62.3z"/>
		<path class="st0" d="M35.3,69.8c0,1.1-0.9,2-2,2s-2-0.9-2-2v-5.5c0-1.1,0.9-2,2-2s2,0.9,2,2V69.8z"/>
		<path class="st2" d="M33.3,71.8c-1.1,0-2-0.9-2-2v-3.5h-4.2v6.2c0,3.4,2.8,6.2,6.2,6.2c3.4,0,6.2-2.8,6.2-6.2v-6.2h-4.2v3.5
			C35.3,70.9,34.4,71.8,33.3,71.8"/>
	</g>
</g>
</svg>
